<svg fill="none" height="255" viewBox="0 0 1164 255" width="1164" xmlns="http://www.w3.org/2000/svg" xmlns:xlink="http://www.w3.org/1999/xlink"><clipPath id="a"><path d="m0 0h1163.646v255h-1163.646z"/></clipPath><g clip-path="url(#a)"><path clip-rule="evenodd" d="m731.011 17.0346s-17.083-14.28701-63.564-16.8244c-38.53-2.13335-61.366 12.2344-61.366 12.2344l-51.298 7.7738 28.59 42.1822s23.742-34.9255 70.013-37.7215c29.802-1.794 49.099 10.3597 49.099 10.3597z" fill="#f42836" fill-rule="evenodd"/><path clip-rule="evenodd" d="m558.517 49.6978s-9.956 11.3617-16.469 57.4552c-5.43 38.19 10.505 62.481 10.505 62.481l3.362 51.734 44.461-24.841s-35.766-27.297-34.554-73.584c.744-29.8832 12.089-48.5824 12.089-48.5824l-19.41-24.679" fill="#1c355e" fill-rule="evenodd"/><path d="m614.405 105.681 46.498-22.4647v104.7117z" fill="#1c355e"/><path d="m711.425 105.681-46.497-22.4647v104.7117z" fill="#1c355e"/><path clip-rule="evenodd" d="m669.663 57.713c13.333 8.9213 24.873 16.5982 41.842 26.9417v17.5673l-42.052-21.4138-.065 20.8808 10.408 8.55v8.452l-16.711-4.283-16.372 4.283v-8.016l9.487-8.679.145-21.4626-43.038 21.6886v-15.5148s30.691-21.4951 42.618-28.6871c0-3.8788-.824-19.7335 7.208-19.7335 8.679 0 6.546 19.4264 6.546 19.4264" fill="#f98d2b" fill-rule="evenodd"/><path d="m655.924 186.248-15.563-25.552-25.294 12.8s26.085-1.05 40.873 12.768" fill="#1c355e"/><path d="m671.229 186.248 15.548-25.552 25.277 12.8s-26.069-1.05-40.825 12.768" fill="#1c355e"/><g fill="#00946e"><path d="m120.987 145.941c0 16.792-.711 27.944-2.101 33.132-2.02 7.385-5.14 13.705-9.277 18.747-4.17 5.075-9.455 9.132-15.6931 12.041-13.5112 6.222-28.7356 5.689-43.2812-1.261-7.6929-3.62-13.4789-8.21-17.2122-13.657-3.7011-5.43-6.1092-12.315-7.1435-20.493-.5818-3.62-.8727-12.945-.8727-28.493v-131.9282h-25.4063v131.9122c0 22.303 1.3091 37.334 4.00811 45.932 4.29903 14.044 12.94559 25.487 25.68099 33.972 12.6547 8.485 28.0245 12.8 45.7054 12.8 16.3719 0 30.5455-4.574 42.1175-13.608 11.556-9.019 19.362-19.75 23.208-31.904 3.798-12.056 5.722-27.927 5.722-47.208v-131.8962h-25.455z"/><path d="m362.184 173.351-139.153-160.2114h-8.824v220.9634h27.96v-158.2396l137.956 158.2396h8.97v-220.9634h-26.909z"/><path d="m485.999 13.1396h-27.184v220.9634h27.184z"/><path d="m941.326 145.941c0 16.776-.695 27.927-2.085 33.132-1.972 7.305-5.107 13.608-9.277 18.747-4.17 5.075-9.455 9.132-15.693 12.041-13.447 6.222-28.687 5.689-43.281-1.261-7.693-3.62-13.479-8.21-17.196-13.673-3.717-5.382-6.109-12.25-7.16-20.477-.582-3.717-.873-13.317-.873-28.509v-131.9122h-25.422v131.9122c0 21.867 1.357 37.317 4.04 45.932 4.332 14.06 12.978 25.503 25.665 33.972 12.703 8.485 28.073 12.8 45.722 12.8 16.372 0 30.545-4.574 42.117-13.608 11.556-9.035 19.362-19.766 23.192-31.904 3.798-12.056 5.722-27.927 5.722-47.208v-131.8962h-25.471z"/><path d="m1163.64 39.9035v-26.7639h-129.08v220.9634h128.2v-26.78h-100.97v-78.885h100.97v-26.748h-100.97v-61.7865z"/><path d="m730.252 223.663c9.487 12.784 20.671 28.17 37.705 30.804 8.065 1.245 16.42.243 24.146-2.262 11.62-3.75 20.574-10.102 33.277-10.441-.243 0-4.687-4.347-4.962-4.606-2.78-2.683-5.77-5.188-8.727-7.661-9.213-7.725-21.399-16.614-32.647-20.364-19.62-6.497-34.796-9.907-54.594-1.228-11.201 4.913-23.855 10.909-36.219 12.768-13.964 2.085-28.477.291-42.505-3.313-11.217-2.877-22.336-7.58-32.841-12.865l-25.002 13.996c10.877 8.469 22.578 14.449 39.063 19.362 21.382 6.384 43.636 3.943 64.388-3.766 21.625-8.032 35.394-27.345 68.17-19.879 7.16 1.633 14.643 5.091 20.477 9.52 0 0-25.325-6.627-49.746-.065"/></g><path clip-rule="evenodd" d="m762.771 69.1238-5.479-51.5559-43.395 26.6345s36.801 25.8103 37.48 72.1136c.21 14.4-2.134 26.295-4.607 34.764 0 0-5.915 19.75-22.367 42.198 0 0 13.592-7.046 32.695-1.842 7.063-12.008 13.382-23.354 15.547-36.154 1.374-6.335 2.505-14.238 3.152-24.146 2.505-38.4645-13.026-62.0122-13.026-62.0122z" fill="#f98d2b" fill-rule="evenodd"/></g></svg>